<?xml version="1.0" encoding="UTF-8" standalone="no"?><diagram id="SNbYQcsz_Utg5FWgZMJS" name="Page-1"><mxGraphModel arrows="1" connect="1" dx="332" dy="241" fold="1" grid="1" gridSize="10" guides="1" math="0" page="1" pageHeight="1100" pageScale="1" pageWidth="850" shadow="0" tooltips="1"><root><mxCell id="0"/><mxCell id="1" parent="0"/><mxCell id="2" parent="1" style="swimlane;fontStyle=0;align=center;verticalAlign=top;childLayout=stackLayout;horizontal=1;startSize=30;horizontalStack=0;resizeParent=1;resizeParentMax=0;resizeLast=0;collapsible=0;marginBottom=0;html=1;" value="UserInvalidPasswordException" vertex="1"><mxGeometry as="geometry" height="60" width="225" x="70" y="80"/></mxCell><mxCell id="3" parent="2" style="line;strokeWidth=1;fillColor=none;align=left;verticalAlign=middle;spacingTop=-1;spacingLeft=3;spacingRight=3;rotatable=0;labelPosition=right;points=[];portConstraint=eastwest;" vertex="1"><mxGeometry as="geometry" height="8" width="225" y="26"/></mxCell><mxCell id="4" parent="2" style="text;html=1;strokeColor=none;fillColor=none;align=left;verticalAlign=middle;spacingLeft=4;spacingRight=4;overflow=hidden;rotatable=0;points=[[0,0.5],[1,0.5]];portConstraint=eastwest;" value="+ UserInvalidPasswordException()" vertex="1"><mxGeometry as="geometry" height="26" width="225" y="34"/></mxCell><mxCell id="5" parent="1" style="swimlane;fontStyle=0;align=center;verticalAlign=top;childLayout=stackLayout;horizontal=1;startSize=30;horizontalStack=0;resizeParent=1;resizeParentMax=0;resizeLast=0;collapsible=0;marginBottom=0;html=1;" value="BadRequestException" vertex="1"><mxGeometry as="geometry" height="60" width="225" x="391" y="80"/></mxCell><mxCell id="6" parent="5" style="line;strokeWidth=1;fillColor=none;align=left;verticalAlign=middle;spacingTop=-1;spacingLeft=3;spacingRight=3;rotatable=0;labelPosition=right;points=[];portConstraint=eastwest;" vertex="1"><mxGeometry as="geometry" height="8" width="225" y="26"/></mxCell><mxCell id="7" parent="5" style="text;html=1;strokeColor=none;fillColor=none;align=left;verticalAlign=middle;spacingLeft=4;spacingRight=4;overflow=hidden;rotatable=0;points=[[0,0.5],[1,0.5]];portConstraint=eastwest;" value="+ BadRequestException(String)" vertex="1"><mxGeometry as="geometry" height="26" width="225" y="34"/></mxCell><mxCell id="8" parent="1" style="swimlane;fontStyle=0;align=center;verticalAlign=top;childLayout=stackLayout;horizontal=1;startSize=30;horizontalStack=0;resizeParent=1;resizeParentMax=0;resizeLast=0;collapsible=0;marginBottom=0;html=1;" value="InternalServerError" vertex="1"><mxGeometry as="geometry" height="86" width="225" x="712" y="80"/></mxCell><mxCell id="9" parent="8" style="line;strokeWidth=1;fillColor=none;align=left;verticalAlign=middle;spacingTop=-1;spacingLeft=3;spacingRight=3;rotatable=0;labelPosition=right;points=[];portConstraint=eastwest;" vertex="1"><mxGeometry as="geometry" height="8" width="225" y="26"/></mxCell><mxCell id="10" parent="8" style="text;html=1;strokeColor=none;fillColor=none;align=left;verticalAlign=middle;spacingLeft=4;spacingRight=4;overflow=hidden;rotatable=0;points=[[0,0.5],[1,0.5]];portConstraint=eastwest;" value="+ InternalServerError(String)" vertex="1"><mxGeometry as="geometry" height="26" width="225" y="34"/></mxCell><mxCell id="11" parent="8" style="text;html=1;strokeColor=none;fillColor=none;align=left;verticalAlign=middle;spacingLeft=4;spacingRight=4;overflow=hidden;rotatable=0;points=[[0,0.5],[1,0.5]];portConstraint=eastwest;" value="+ InternalServerError()" vertex="1"><mxGeometry as="geometry" height="26" width="225" y="60"/></mxCell><mxCell id="12" parent="1" style="swimlane;fontStyle=0;align=center;verticalAlign=top;childLayout=stackLayout;horizontal=1;startSize=30;horizontalStack=0;resizeParent=1;resizeParentMax=0;resizeLast=0;collapsible=0;marginBottom=0;html=1;" value="IntershipRequestConflict" vertex="1"><mxGeometry as="geometry" height="60" width="225" x="70" y="662"/></mxCell><mxCell id="13" parent="12" style="line;strokeWidth=1;fillColor=none;align=left;verticalAlign=middle;spacingTop=-1;spacingLeft=3;spacingRight=3;rotatable=0;labelPosition=right;points=[];portConstraint=eastwest;" vertex="1"><mxGeometry as="geometry" height="8" width="225" y="26"/></mxCell><mxCell id="14" parent="12" style="text;html=1;strokeColor=none;fillColor=none;align=left;verticalAlign=middle;spacingLeft=4;spacingRight=4;overflow=hidden;rotatable=0;points=[[0,0.5],[1,0.5]];portConstraint=eastwest;" value="+ IntershipRequestConflict()" vertex="1"><mxGeometry as="geometry" height="26" width="225" y="34"/></mxCell><mxCell id="15" parent="1" style="swimlane;fontStyle=0;align=center;verticalAlign=top;childLayout=stackLayout;horizontal=1;startSize=30;horizontalStack=0;resizeParent=1;resizeParentMax=0;resizeLast=0;collapsible=0;marginBottom=0;html=1;" value="InvalidRequestOrder" vertex="1"><mxGeometry as="geometry" height="60" width="225" x="391" y="662"/></mxCell><mxCell id="16" parent="15" style="line;strokeWidth=1;fillColor=none;align=left;verticalAlign=middle;spacingTop=-1;spacingLeft=3;spacingRight=3;rotatable=0;labelPosition=right;points=[];portConstraint=eastwest;" vertex="1"><mxGeometry as="geometry" height="8" width="225" y="26"/></mxCell><mxCell id="17" parent="15" style="text;html=1;strokeColor=none;fillColor=none;align=left;verticalAlign=middle;spacingLeft=4;spacingRight=4;overflow=hidden;rotatable=0;points=[[0,0.5],[1,0.5]];portConstraint=eastwest;" value="+ InvalidRequestOrder()" vertex="1"><mxGeometry as="geometry" height="26" width="225" y="34"/></mxCell><mxCell id="18" parent="1" style="swimlane;fontStyle=0;align=center;verticalAlign=top;childLayout=stackLayout;horizontal=1;startSize=30;horizontalStack=0;resizeParent=1;resizeParentMax=0;resizeLast=0;collapsible=0;marginBottom=0;html=1;" value="UserAlreadyAuthenticatedException" vertex="1"><mxGeometry as="geometry" height="60" width="225" x="712" y="662"/></mxCell><mxCell id="19" parent="18" style="line;strokeWidth=1;fillColor=none;align=left;verticalAlign=middle;spacingTop=-1;spacingLeft=3;spacingRight=3;rotatable=0;labelPosition=right;points=[];portConstraint=eastwest;" vertex="1"><mxGeometry as="geometry" height="8" width="225" y="26"/></mxCell><mxCell id="20" parent="18" style="text;html=1;strokeColor=none;fillColor=none;align=left;verticalAlign=middle;spacingLeft=4;spacingRight=4;overflow=hidden;rotatable=0;points=[[0,0.5],[1,0.5]];portConstraint=eastwest;" value="+ UserAlreadyAuthenticatedException()" vertex="1"><mxGeometry as="geometry" height="26" width="225" y="34"/></mxCell><mxCell id="21" parent="1" style="swimlane;fontStyle=0;align=center;verticalAlign=top;childLayout=stackLayout;horizontal=1;startSize=30;horizontalStack=0;resizeParent=1;resizeParentMax=0;resizeLast=0;collapsible=0;marginBottom=0;html=1;" value="DomainException" vertex="1"><mxGeometry as="geometry" height="138" width="225" x="70" y="1244"/></mxCell><mxCell id="22" parent="21" style="text;html=1;strokeColor=none;fillColor=none;align=left;verticalAlign=middle;spacingLeft=4;spacingRight=4;overflow=hidden;rotatable=0;points=[[0,0.5],[1,0.5]];portConstraint=eastwest;" value="- message : String" vertex="1"><mxGeometry as="geometry" height="26" width="225" y="26"/></mxCell><mxCell id="23" parent="21" style="text;html=1;strokeColor=none;fillColor=none;align=left;verticalAlign=middle;spacingLeft=4;spacingRight=4;overflow=hidden;rotatable=0;points=[[0,0.5],[1,0.5]];portConstraint=eastwest;" value="- statusCode : int" vertex="1"><mxGeometry as="geometry" height="26" width="225" y="52"/></mxCell><mxCell id="24" parent="21" style="line;strokeWidth=1;fillColor=none;align=left;verticalAlign=middle;spacingTop=-1;spacingLeft=3;spacingRight=3;rotatable=0;labelPosition=right;points=[];portConstraint=eastwest;" vertex="1"><mxGeometry as="geometry" height="8" width="225" y="78"/></mxCell><mxCell id="25" parent="21" style="text;html=1;strokeColor=none;fillColor=none;align=left;verticalAlign=middle;spacingLeft=4;spacingRight=4;overflow=hidden;rotatable=0;points=[[0,0.5],[1,0.5]];portConstraint=eastwest;" value="+ DomainException(String, int)" vertex="1"><mxGeometry as="geometry" height="26" width="225" y="86"/></mxCell><mxCell id="26" parent="21" style="text;html=1;strokeColor=none;fillColor=none;align=left;verticalAlign=middle;spacingLeft=4;spacingRight=4;overflow=hidden;rotatable=0;points=[[0,0.5],[1,0.5]];portConstraint=eastwest;" value="+ toJson(): String" vertex="1"><mxGeometry as="geometry" height="26" width="225" y="112"/></mxCell><mxCell id="27" parent="1" style="swimlane;fontStyle=0;align=center;verticalAlign=top;childLayout=stackLayout;horizontal=1;startSize=30;horizontalStack=0;resizeParent=1;resizeParentMax=0;resizeLast=0;collapsible=0;marginBottom=0;html=1;" value="PedidoEstagioService" vertex="1"><mxGeometry as="geometry" height="60" width="225" x="391" y="1244"/></mxCell><mxCell id="28" parent="27" style="line;strokeWidth=1;fillColor=none;align=left;verticalAlign=middle;spacingTop=-1;spacingLeft=3;spacingRight=3;rotatable=0;labelPosition=right;points=[];portConstraint=eastwest;" vertex="1"><mxGeometry as="geometry" height="8" width="225" y="26"/></mxCell><mxCell id="29" parent="27" style="text;html=1;strokeColor=none;fillColor=none;align=left;verticalAlign=middle;spacingLeft=4;spacingRight=4;overflow=hidden;rotatable=0;points=[[0,0.5],[1,0.5]];portConstraint=eastwest;" value="# doPost(HttpServletRequest, HttpServletResponse): void" vertex="1"><mxGeometry as="geometry" height="26" width="225" y="34"/></mxCell><mxCell id="30" parent="1" style="swimlane;fontStyle=0;align=center;verticalAlign=top;childLayout=stackLayout;horizontal=1;startSize=30;horizontalStack=0;resizeParent=1;resizeParentMax=0;resizeLast=0;collapsible=0;marginBottom=0;html=1;" value="DiscenteService" vertex="1"><mxGeometry as="geometry" height="60" width="225" x="712" y="1244"/></mxCell><mxCell id="31" parent="30" style="line;strokeWidth=1;fillColor=none;align=left;verticalAlign=middle;spacingTop=-1;spacingLeft=3;spacingRight=3;rotatable=0;labelPosition=right;points=[];portConstraint=eastwest;" vertex="1"><mxGeometry as="geometry" height="8" width="225" y="26"/></mxCell><mxCell id="32" parent="30" style="text;html=1;strokeColor=none;fillColor=none;align=left;verticalAlign=middle;spacingLeft=4;spacingRight=4;overflow=hidden;rotatable=0;points=[[0,0.5],[1,0.5]];portConstraint=eastwest;" value="# doPost(HttpServletRequest, HttpServletResponse): void" vertex="1"><mxGeometry as="geometry" height="26" width="225" y="34"/></mxCell><mxCell id="33" parent="1" style="swimlane;fontStyle=0;align=center;verticalAlign=top;childLayout=stackLayout;horizontal=1;startSize=30;horizontalStack=0;resizeParent=1;resizeParentMax=0;resizeLast=0;collapsible=0;marginBottom=0;html=1;" value="SupervisorService" vertex="1"><mxGeometry as="geometry" height="60" width="225" x="70" y="1826"/></mxCell><mxCell id="34" parent="33" style="line;strokeWidth=1;fillColor=none;align=left;verticalAlign=middle;spacingTop=-1;spacingLeft=3;spacingRight=3;rotatable=0;labelPosition=right;points=[];portConstraint=eastwest;" vertex="1"><mxGeometry as="geometry" height="8" width="225" y="26"/></mxCell><mxCell id="35" parent="33" style="text;html=1;strokeColor=none;fillColor=none;align=left;verticalAlign=middle;spacingLeft=4;spacingRight=4;overflow=hidden;rotatable=0;points=[[0,0.5],[1,0.5]];portConstraint=eastwest;" value="# doPost(HttpServletRequest, HttpServletResponse): void" vertex="1"><mxGeometry as="geometry" height="26" width="225" y="34"/></mxCell><mxCell id="36" parent="1" style="swimlane;fontStyle=0;align=center;verticalAlign=top;childLayout=stackLayout;horizontal=1;startSize=30;horizontalStack=0;resizeParent=1;resizeParentMax=0;resizeLast=0;collapsible=0;marginBottom=0;html=1;" value="SupervisorMDS" vertex="1"><mxGeometry as="geometry" height="138" width="225" x="391" y="1826"/></mxCell><mxCell id="37" parent="36" style="text;html=1;strokeColor=none;fillColor=none;align=left;verticalAlign=middle;spacingLeft=4;spacingRight=4;overflow=hidden;rotatable=0;points=[[0,0.5],[1,0.5]];portConstraint=eastwest;fontStyle=4;" value="- instance : SupervisorMDS" vertex="1"><mxGeometry as="geometry" height="26" width="225" y="26"/></mxCell><mxCell id="38" parent="36" style="text;html=1;strokeColor=none;fillColor=none;align=left;verticalAlign=middle;spacingLeft=4;spacingRight=4;overflow=hidden;rotatable=0;points=[[0,0.5],[1,0.5]];portConstraint=eastwest;" value="- pedidoEstagio : PedidoEstagioDto" vertex="1"><mxGeometry as="geometry" height="26" width="225" y="52"/></mxCell><mxCell id="39" parent="36" style="line;strokeWidth=1;fillColor=none;align=left;verticalAlign=middle;spacingTop=-1;spacingLeft=3;spacingRight=3;rotatable=0;labelPosition=right;points=[];portConstraint=eastwest;" vertex="1"><mxGeometry as="geometry" height="8" width="225" y="78"/></mxCell><mxCell id="40" parent="36" style="text;html=1;strokeColor=none;fillColor=none;align=left;verticalAlign=middle;spacingLeft=4;spacingRight=4;overflow=hidden;rotatable=0;points=[[0,0.5],[1,0.5]];portConstraint=eastwest;fontStyle=4;" value="+ getInstance(): SupervisorMDS" vertex="1"><mxGeometry as="geometry" height="26" width="225" y="86"/></mxCell><mxCell id="41" parent="36" style="text;html=1;strokeColor=none;fillColor=none;align=left;verticalAlign=middle;spacingLeft=4;spacingRight=4;overflow=hidden;rotatable=0;points=[[0,0.5],[1,0.5]];portConstraint=eastwest;" value="+ criarSupervisor(int): void" vertex="1"><mxGeometry as="geometry" height="26" width="225" y="112"/></mxCell><mxCell id="42" parent="1" style="swimlane;fontStyle=0;align=center;verticalAlign=top;childLayout=stackLayout;horizontal=1;startSize=30;horizontalStack=0;resizeParent=1;resizeParentMax=0;resizeLast=0;collapsible=0;marginBottom=0;html=1;" value="DiscenteMDS" vertex="1"><mxGeometry as="geometry" height="242" width="225" x="712" y="1826"/></mxCell><mxCell id="43" parent="42" style="text;html=1;strokeColor=none;fillColor=none;align=left;verticalAlign=middle;spacingLeft=4;spacingRight=4;overflow=hidden;rotatable=0;points=[[0,0.5],[1,0.5]];portConstraint=eastwest;fontStyle=4;" value="- instance : DiscenteMDS" vertex="1"><mxGeometry as="geometry" height="26" width="225" y="26"/></mxCell><mxCell id="44" parent="42" style="text;html=1;strokeColor=none;fillColor=none;align=left;verticalAlign=middle;spacingLeft=4;spacingRight=4;overflow=hidden;rotatable=0;points=[[0,0.5],[1,0.5]];portConstraint=eastwest;" value="- request : HttpServletRequest" vertex="1"><mxGeometry as="geometry" height="26" width="225" y="52"/></mxCell><mxCell id="45" parent="42" style="text;html=1;strokeColor=none;fillColor=none;align=left;verticalAlign=middle;spacingLeft=4;spacingRight=4;overflow=hidden;rotatable=0;points=[[0,0.5],[1,0.5]];portConstraint=eastwest;" value="- discente : DiscenteDto" vertex="1"><mxGeometry as="geometry" height="26" width="225" y="78"/></mxCell><mxCell id="46" parent="42" style="line;strokeWidth=1;fillColor=none;align=left;verticalAlign=middle;spacingTop=-1;spacingLeft=3;spacingRight=3;rotatable=0;labelPosition=right;points=[];portConstraint=eastwest;" vertex="1"><mxGeometry as="geometry" height="8" width="225" y="104"/></mxCell><mxCell id="47" parent="42" style="text;html=1;strokeColor=none;fillColor=none;align=left;verticalAlign=middle;spacingLeft=4;spacingRight=4;overflow=hidden;rotatable=0;points=[[0,0.5],[1,0.5]];portConstraint=eastwest;fontStyle=4;" value="+ getInstance(): DiscenteMDS" vertex="1"><mxGeometry as="geometry" height="26" width="225" y="112"/></mxCell><mxCell id="48" parent="42" style="text;html=1;strokeColor=none;fillColor=none;align=left;verticalAlign=middle;spacingLeft=4;spacingRight=4;overflow=hidden;rotatable=0;points=[[0,0.5],[1,0.5]];portConstraint=eastwest;" value="+ criarSessao(String, String): void" vertex="1"><mxGeometry as="geometry" height="26" width="225" y="138"/></mxCell><mxCell id="49" parent="42" style="text;html=1;strokeColor=none;fillColor=none;align=left;verticalAlign=middle;spacingLeft=4;spacingRight=4;overflow=hidden;rotatable=0;points=[[0,0.5],[1,0.5]];portConstraint=eastwest;" value="+ ativarSessao(): void" vertex="1"><mxGeometry as="geometry" height="26" width="225" y="164"/></mxCell><mxCell id="50" parent="42" style="text;html=1;strokeColor=none;fillColor=none;align=left;verticalAlign=middle;spacingLeft=4;spacingRight=4;overflow=hidden;rotatable=0;points=[[0,0.5],[1,0.5]];portConstraint=eastwest;" value="+ validarSenha(String): void" vertex="1"><mxGeometry as="geometry" height="26" width="225" y="190"/></mxCell><mxCell id="51" parent="42" style="text;html=1;strokeColor=none;fillColor=none;align=left;verticalAlign=middle;spacingLeft=4;spacingRight=4;overflow=hidden;rotatable=0;points=[[0,0.5],[1,0.5]];portConstraint=eastwest;" value="# doPost(HttpServletRequest, HttpServletResponse): void" vertex="1"><mxGeometry as="geometry" height="26" width="225" y="216"/></mxCell><mxCell id="52" parent="1" style="swimlane;fontStyle=0;align=center;verticalAlign=top;childLayout=stackLayout;horizontal=1;startSize=30;horizontalStack=0;resizeParent=1;resizeParentMax=0;resizeLast=0;collapsible=0;marginBottom=0;html=1;" value="PedidoEstagioMDS" vertex="1"><mxGeometry as="geometry" height="398" width="225" x="70" y="2408"/></mxCell><mxCell id="53" parent="52" style="text;html=1;strokeColor=none;fillColor=none;align=left;verticalAlign=middle;spacingLeft=4;spacingRight=4;overflow=hidden;rotatable=0;points=[[0,0.5],[1,0.5]];portConstraint=eastwest;fontStyle=4;" value="- instance : PedidoEstagioMDS" vertex="1"><mxGeometry as="geometry" height="26" width="225" y="26"/></mxCell><mxCell id="54" parent="52" style="text;html=1;strokeColor=none;fillColor=none;align=left;verticalAlign=middle;spacingLeft=4;spacingRight=4;overflow=hidden;rotatable=0;points=[[0,0.5],[1,0.5]];portConstraint=eastwest;" value="- cargaHorariaCumprida : int" vertex="1"><mxGeometry as="geometry" height="26" width="225" y="52"/></mxCell><mxCell id="55" parent="52" style="text;html=1;strokeColor=none;fillColor=none;align=left;verticalAlign=middle;spacingLeft=4;spacingRight=4;overflow=hidden;rotatable=0;points=[[0,0.5],[1,0.5]];portConstraint=eastwest;" value="- ira : double" vertex="1"><mxGeometry as="geometry" height="26" width="225" y="78"/></mxCell><mxCell id="56" parent="52" style="text;html=1;strokeColor=none;fillColor=none;align=left;verticalAlign=middle;spacingLeft=4;spacingRight=4;overflow=hidden;rotatable=0;points=[[0,0.5],[1,0.5]];portConstraint=eastwest;" value="- pedidoEstagioDto : PedidoEstagioDto" vertex="1"><mxGeometry as="geometry" height="26" width="225" y="104"/></mxCell><mxCell id="57" parent="52" style="line;strokeWidth=1;fillColor=none;align=left;verticalAlign=middle;spacingTop=-1;spacingLeft=3;spacingRight=3;rotatable=0;labelPosition=right;points=[];portConstraint=eastwest;" vertex="1"><mxGeometry as="geometry" height="8" width="225" y="130"/></mxCell><mxCell id="58" parent="52" style="text;html=1;strokeColor=none;fillColor=none;align=left;verticalAlign=middle;spacingLeft=4;spacingRight=4;overflow=hidden;rotatable=0;points=[[0,0.5],[1,0.5]];portConstraint=eastwest;fontStyle=4;" value="+ getInstance(): PedidoEstagioMDS" vertex="1"><mxGeometry as="geometry" height="26" width="225" y="138"/></mxCell><mxCell id="59" parent="52" style="text;html=1;strokeColor=none;fillColor=none;align=left;verticalAlign=middle;spacingLeft=4;spacingRight=4;overflow=hidden;rotatable=0;points=[[0,0.5],[1,0.5]];portConstraint=eastwest;" value="+ criarPedEstag(int, double): void" vertex="1"><mxGeometry as="geometry" height="26" width="225" y="164"/></mxCell><mxCell id="60" parent="52" style="text;html=1;strokeColor=none;fillColor=none;align=left;verticalAlign=middle;spacingLeft=4;spacingRight=4;overflow=hidden;rotatable=0;points=[[0,0.5],[1,0.5]];portConstraint=eastwest;" value="+ informarDadosPedEstag(DiscenteDto, int, String, boolean): void" vertex="1"><mxGeometry as="geometry" height="26" width="225" y="190"/></mxCell><mxCell id="61" parent="52" style="text;html=1;strokeColor=none;fillColor=none;align=left;verticalAlign=middle;spacingLeft=4;spacingRight=4;overflow=hidden;rotatable=0;points=[[0,0.5],[1,0.5]];portConstraint=eastwest;" value="# doPost(HttpServletRequest, HttpServletResponse): void" vertex="1"><mxGeometry as="geometry" height="26" width="225" y="216"/></mxCell><mxCell id="62" parent="52" style="text;html=1;strokeColor=none;fillColor=none;align=left;verticalAlign=middle;spacingLeft=4;spacingRight=4;overflow=hidden;rotatable=0;points=[[0,0.5],[1,0.5]];portConstraint=eastwest;" value="+ validarCargaCumprida(int): void" vertex="1"><mxGeometry as="geometry" height="26" width="225" y="242"/></mxCell><mxCell id="63" parent="52" style="text;html=1;strokeColor=none;fillColor=none;align=left;verticalAlign=middle;spacingLeft=4;spacingRight=4;overflow=hidden;rotatable=0;points=[[0,0.5],[1,0.5]];portConstraint=eastwest;" value="+ validarIraMinimo(double): void" vertex="1"><mxGeometry as="geometry" height="26" width="225" y="268"/></mxCell><mxCell id="64" parent="52" style="text;html=1;strokeColor=none;fillColor=none;align=left;verticalAlign=middle;spacingLeft=4;spacingRight=4;overflow=hidden;rotatable=0;points=[[0,0.5],[1,0.5]];portConstraint=eastwest;" value="+ validarCargaSemanal(int): void" vertex="1"><mxGeometry as="geometry" height="26" width="225" y="294"/></mxCell><mxCell id="65" parent="52" style="text;html=1;strokeColor=none;fillColor=none;align=left;verticalAlign=middle;spacingLeft=4;spacingRight=4;overflow=hidden;rotatable=0;points=[[0,0.5],[1,0.5]];portConstraint=eastwest;" value="+ associarSupervisor(PedidoEstagioDto, SupervisorDto): void" vertex="1"><mxGeometry as="geometry" height="26" width="225" y="320"/></mxCell><mxCell id="66" parent="52" style="text;html=1;strokeColor=none;fillColor=none;align=left;verticalAlign=middle;spacingLeft=4;spacingRight=4;overflow=hidden;rotatable=0;points=[[0,0.5],[1,0.5]];portConstraint=eastwest;fontStyle=4;" value="+ pegarPedidoEstagioPeloNumeroPedidoEstagio(int): PedidoEstagioDto" vertex="1"><mxGeometry as="geometry" height="26" width="225" y="346"/></mxCell><mxCell id="67" parent="52" style="text;html=1;strokeColor=none;fillColor=none;align=left;verticalAlign=middle;spacingLeft=4;spacingRight=4;overflow=hidden;rotatable=0;points=[[0,0.5],[1,0.5]];portConstraint=eastwest;" value="+ getPedidoEstagioDto(): PedidoEstagioDto" vertex="1"><mxGeometry as="geometry" height="26" width="225" y="372"/></mxCell><mxCell id="68" parent="1" style="swimlane;fontStyle=0;align=center;verticalAlign=top;childLayout=stackLayout;horizontal=1;startSize=30;horizontalStack=0;resizeParent=1;resizeParentMax=0;resizeLast=0;collapsible=0;marginBottom=0;html=1;" value="ExceptionHandlerFilter" vertex="1"><mxGeometry as="geometry" height="60" width="225" x="391" y="2408"/></mxCell><mxCell id="69" parent="68" style="line;strokeWidth=1;fillColor=none;align=left;verticalAlign=middle;spacingTop=-1;spacingLeft=3;spacingRight=3;rotatable=0;labelPosition=right;points=[];portConstraint=eastwest;" vertex="1"><mxGeometry as="geometry" height="8" width="225" y="26"/></mxCell><mxCell id="70" parent="68" style="text;html=1;strokeColor=none;fillColor=none;align=left;verticalAlign=middle;spacingLeft=4;spacingRight=4;overflow=hidden;rotatable=0;points=[[0,0.5],[1,0.5]];portConstraint=eastwest;" value="+ doFilter(ServletRequest, ServletResponse, FilterChain): void" vertex="1"><mxGeometry as="geometry" height="26" width="225" y="34"/></mxCell><mxCell id="71" parent="1" style="swimlane;fontStyle=0;align=center;verticalAlign=top;childLayout=stackLayout;horizontal=1;startSize=30;horizontalStack=0;resizeParent=1;resizeParentMax=0;resizeLast=0;collapsible=0;marginBottom=0;html=1;" value="SupervisorGateway" vertex="1"><mxGeometry as="geometry" height="138" width="225" x="712" y="2408"/></mxCell><mxCell id="72" parent="71" style="text;html=1;strokeColor=none;fillColor=none;align=left;verticalAlign=middle;spacingLeft=4;spacingRight=4;overflow=hidden;rotatable=0;points=[[0,0.5],[1,0.5]];portConstraint=eastwest;fontStyle=4;" value="- instance : SupervisorGateway" vertex="1"><mxGeometry as="geometry" height="26" width="225" y="26"/></mxCell><mxCell id="73" parent="71" style="line;strokeWidth=1;fillColor=none;align=left;verticalAlign=middle;spacingTop=-1;spacingLeft=3;spacingRight=3;rotatable=0;labelPosition=right;points=[];portConstraint=eastwest;" vertex="1"><mxGeometry as="geometry" height="8" width="225" y="52"/></mxCell><mxCell id="74" parent="71" style="text;html=1;strokeColor=none;fillColor=none;align=left;verticalAlign=middle;spacingLeft=4;spacingRight=4;overflow=hidden;rotatable=0;points=[[0,0.5],[1,0.5]];portConstraint=eastwest;fontStyle=4;" value="+ getInstance(): SupervisorGateway" vertex="1"><mxGeometry as="geometry" height="26" width="225" y="60"/></mxCell><mxCell id="75" parent="71" style="text;html=1;strokeColor=none;fillColor=none;align=left;verticalAlign=middle;spacingLeft=4;spacingRight=4;overflow=hidden;rotatable=0;points=[[0,0.5],[1,0.5]];portConstraint=eastwest;" value="# SupervisorGateway()" vertex="1"><mxGeometry as="geometry" height="26" width="225" y="86"/></mxCell><mxCell id="76" parent="71" style="text;html=1;strokeColor=none;fillColor=none;align=left;verticalAlign=middle;spacingLeft=4;spacingRight=4;overflow=hidden;rotatable=0;points=[[0,0.5],[1,0.5]];portConstraint=eastwest;" value="+ criarSupervisor(String, String, String, String, String): SupervisorDto" vertex="1"><mxGeometry as="geometry" height="26" width="225" y="112"/></mxCell><mxCell id="77" parent="1" style="swimlane;fontStyle=0;align=center;verticalAlign=top;childLayout=stackLayout;horizontal=1;startSize=30;horizontalStack=0;resizeParent=1;resizeParentMax=0;resizeLast=0;collapsible=0;marginBottom=0;html=1;" value="DiscenteGateway" vertex="1"><mxGeometry as="geometry" height="242" width="225" x="70" y="2990"/></mxCell><mxCell id="78" parent="77" style="text;html=1;strokeColor=none;fillColor=none;align=left;verticalAlign=middle;spacingLeft=4;spacingRight=4;overflow=hidden;rotatable=0;points=[[0,0.5],[1,0.5]];portConstraint=eastwest;fontStyle=4;" value="- instance : DiscenteGateway" vertex="1"><mxGeometry as="geometry" height="26" width="225" y="26"/></mxCell><mxCell id="79" parent="77" style="text;html=1;strokeColor=none;fillColor=none;align=left;verticalAlign=middle;spacingLeft=4;spacingRight=4;overflow=hidden;rotatable=0;points=[[0,0.5],[1,0.5]];portConstraint=eastwest;" value="- discenteMap : Map&lt;String,DiscenteDto&gt;&amp;lt;StringDiscenteDto, &amp;gt;" vertex="1"><mxGeometry as="geometry" height="26" width="225" y="52"/></mxCell><mxCell id="80" parent="77" style="line;strokeWidth=1;fillColor=none;align=left;verticalAlign=middle;spacingTop=-1;spacingLeft=3;spacingRight=3;rotatable=0;labelPosition=right;points=[];portConstraint=eastwest;" vertex="1"><mxGeometry as="geometry" height="8" width="225" y="78"/></mxCell><mxCell id="81" parent="77" style="text;html=1;strokeColor=none;fillColor=none;align=left;verticalAlign=middle;spacingLeft=4;spacingRight=4;overflow=hidden;rotatable=0;points=[[0,0.5],[1,0.5]];portConstraint=eastwest;fontStyle=4;" value="+ getInstance(): DiscenteGateway" vertex="1"><mxGeometry as="geometry" height="26" width="225" y="86"/></mxCell><mxCell id="82" parent="77" style="text;html=1;strokeColor=none;fillColor=none;align=left;verticalAlign=middle;spacingLeft=4;spacingRight=4;overflow=hidden;rotatable=0;points=[[0,0.5],[1,0.5]];portConstraint=eastwest;" value="# DiscenteGateway()" vertex="1"><mxGeometry as="geometry" height="26" width="225" y="112"/></mxCell><mxCell id="83" parent="77" style="text;html=1;strokeColor=none;fillColor=none;align=left;verticalAlign=middle;spacingLeft=4;spacingRight=4;overflow=hidden;rotatable=0;points=[[0,0.5],[1,0.5]];portConstraint=eastwest;" value="+ criarDiscente(String, String): void" vertex="1"><mxGeometry as="geometry" height="26" width="225" y="138"/></mxCell><mxCell id="84" parent="77" style="text;html=1;strokeColor=none;fillColor=none;align=left;verticalAlign=middle;spacingLeft=4;spacingRight=4;overflow=hidden;rotatable=0;points=[[0,0.5],[1,0.5]];portConstraint=eastwest;" value="+ pegarDiscentePeloEmail(String): DiscenteDto" vertex="1"><mxGeometry as="geometry" height="26" width="225" y="164"/></mxCell><mxCell id="85" parent="77" style="text;html=1;strokeColor=none;fillColor=none;align=left;verticalAlign=middle;spacingLeft=4;spacingRight=4;overflow=hidden;rotatable=0;points=[[0,0.5],[1,0.5]];portConstraint=eastwest;" value="+ pegarDiscentePeloId(String): DiscenteDto" vertex="1"><mxGeometry as="geometry" height="26" width="225" y="190"/></mxCell><mxCell id="86" parent="77" style="text;html=1;strokeColor=none;fillColor=none;align=left;verticalAlign=middle;spacingLeft=4;spacingRight=4;overflow=hidden;rotatable=0;points=[[0,0.5],[1,0.5]];portConstraint=eastwest;" value="+ salvarDiscente(DiscenteDto): void" vertex="1"><mxGeometry as="geometry" height="26" width="225" y="216"/></mxCell><mxCell id="87" parent="1" style="swimlane;fontStyle=0;align=center;verticalAlign=top;childLayout=stackLayout;horizontal=1;startSize=30;horizontalStack=0;resizeParent=1;resizeParentMax=0;resizeLast=0;collapsible=0;marginBottom=0;html=1;" value="PedEstagGateway" vertex="1"><mxGeometry as="geometry" height="216" width="225" x="391" y="2990"/></mxCell><mxCell id="88" parent="87" style="text;html=1;strokeColor=none;fillColor=none;align=left;verticalAlign=middle;spacingLeft=4;spacingRight=4;overflow=hidden;rotatable=0;points=[[0,0.5],[1,0.5]];portConstraint=eastwest;fontStyle=4;" value="- instance : PedEstagGateway" vertex="1"><mxGeometry as="geometry" height="26" width="225" y="26"/></mxCell><mxCell id="89" parent="87" style="text;html=1;strokeColor=none;fillColor=none;align=left;verticalAlign=middle;spacingLeft=4;spacingRight=4;overflow=hidden;rotatable=0;points=[[0,0.5],[1,0.5]];portConstraint=eastwest;" value="- pedEstagMap : Map&lt;Integer,PedidoEstagioDto&gt;&amp;lt;IntegerPedidoEstagioDto, &amp;gt;" vertex="1"><mxGeometry as="geometry" height="26" width="225" y="52"/></mxCell><mxCell id="90" parent="87" style="line;strokeWidth=1;fillColor=none;align=left;verticalAlign=middle;spacingTop=-1;spacingLeft=3;spacingRight=3;rotatable=0;labelPosition=right;points=[];portConstraint=eastwest;" vertex="1"><mxGeometry as="geometry" height="8" width="225" y="78"/></mxCell><mxCell id="91" parent="87" style="text;html=1;strokeColor=none;fillColor=none;align=left;verticalAlign=middle;spacingLeft=4;spacingRight=4;overflow=hidden;rotatable=0;points=[[0,0.5],[1,0.5]];portConstraint=eastwest;fontStyle=4;" value="+ getInstance(): PedEstagGateway" vertex="1"><mxGeometry as="geometry" height="26" width="225" y="86"/></mxCell><mxCell id="92" parent="87" style="text;html=1;strokeColor=none;fillColor=none;align=left;verticalAlign=middle;spacingLeft=4;spacingRight=4;overflow=hidden;rotatable=0;points=[[0,0.5],[1,0.5]];portConstraint=eastwest;" value="# PedEstagGateway()" vertex="1"><mxGeometry as="geometry" height="26" width="225" y="112"/></mxCell><mxCell id="93" parent="87" style="text;html=1;strokeColor=none;fillColor=none;align=left;verticalAlign=middle;spacingLeft=4;spacingRight=4;overflow=hidden;rotatable=0;points=[[0,0.5],[1,0.5]];portConstraint=eastwest;" value="+ pegarPedidoEstagioPeloNumeroPedidoEstagio(int): PedidoEstagioDto" vertex="1"><mxGeometry as="geometry" height="26" width="225" y="138"/></mxCell><mxCell id="94" parent="87" style="text;html=1;strokeColor=none;fillColor=none;align=left;verticalAlign=middle;spacingLeft=4;spacingRight=4;overflow=hidden;rotatable=0;points=[[0,0.5],[1,0.5]];portConstraint=eastwest;" value="+ salvarPedEstag(PedidoEstagioDto): void" vertex="1"><mxGeometry as="geometry" height="26" width="225" y="164"/></mxCell><mxCell id="95" parent="87" style="text;html=1;strokeColor=none;fillColor=none;align=left;verticalAlign=middle;spacingLeft=4;spacingRight=4;overflow=hidden;rotatable=0;points=[[0,0.5],[1,0.5]];portConstraint=eastwest;" value="+ criarPedEstag(String, String, int, double, int, boolean): PedidoEstagioDto" vertex="1"><mxGeometry as="geometry" height="26" width="225" y="190"/></mxCell><mxCell id="96" parent="1" style="swimlane;fontStyle=0;align=center;verticalAlign=top;childLayout=stackLayout;horizontal=1;startSize=30;horizontalStack=0;resizeParent=1;resizeParentMax=0;resizeLast=0;collapsible=0;marginBottom=0;html=1;" value="ParameterUtil" vertex="1"><mxGeometry as="geometry" height="164" width="225" x="712" y="2990"/></mxCell><mxCell id="97" parent="96" style="line;strokeWidth=1;fillColor=none;align=left;verticalAlign=middle;spacingTop=-1;spacingLeft=3;spacingRight=3;rotatable=0;labelPosition=right;points=[];portConstraint=eastwest;" vertex="1"><mxGeometry as="geometry" height="8" width="225" y="26"/></mxCell><mxCell id="98" parent="96" style="text;html=1;strokeColor=none;fillColor=none;align=left;verticalAlign=middle;spacingLeft=4;spacingRight=4;overflow=hidden;rotatable=0;points=[[0,0.5],[1,0.5]];portConstraint=eastwest;fontStyle=4;" value="+ parseString(HttpServletRequest, String): String" vertex="1"><mxGeometry as="geometry" height="26" width="225" y="34"/></mxCell><mxCell id="99" parent="96" style="text;html=1;strokeColor=none;fillColor=none;align=left;verticalAlign=middle;spacingLeft=4;spacingRight=4;overflow=hidden;rotatable=0;points=[[0,0.5],[1,0.5]];portConstraint=eastwest;fontStyle=4;" value="+ parseDouble(HttpServletRequest, String): double" vertex="1"><mxGeometry as="geometry" height="26" width="225" y="60"/></mxCell><mxCell id="100" parent="96" style="text;html=1;strokeColor=none;fillColor=none;align=left;verticalAlign=middle;spacingLeft=4;spacingRight=4;overflow=hidden;rotatable=0;points=[[0,0.5],[1,0.5]];portConstraint=eastwest;fontStyle=4;" value="+ parseInt(HttpServletRequest, String): int" vertex="1"><mxGeometry as="geometry" height="26" width="225" y="86"/></mxCell><mxCell id="101" parent="96" style="text;html=1;strokeColor=none;fillColor=none;align=left;verticalAlign=middle;spacingLeft=4;spacingRight=4;overflow=hidden;rotatable=0;points=[[0,0.5],[1,0.5]];portConstraint=eastwest;fontStyle=4;" value="+ parseBoolean(HttpServletRequest, String): boolean" vertex="1"><mxGeometry as="geometry" height="26" width="225" y="112"/></mxCell><mxCell id="102" parent="96" style="text;html=1;strokeColor=none;fillColor=none;align=left;verticalAlign=middle;spacingLeft=4;spacingRight=4;overflow=hidden;rotatable=0;points=[[0,0.5],[1,0.5]];portConstraint=eastwest;fontStyle=4;" value="+ cast(Object, Class&lt;T&gt;): T" vertex="1"><mxGeometry as="geometry" height="26" width="225" y="138"/></mxCell><mxCell id="103" parent="1" style="swimlane;fontStyle=0;align=center;verticalAlign=top;childLayout=stackLayout;horizontal=1;startSize=30;horizontalStack=0;resizeParent=1;resizeParentMax=0;resizeLast=0;collapsible=0;marginBottom=0;html=1;" value="DiscenteDto" vertex="1"><mxGeometry as="geometry" height="60" width="225" x="70" y="3572"/></mxCell><mxCell id="104" parent="103" style="line;strokeWidth=1;fillColor=none;align=left;verticalAlign=middle;spacingTop=-1;spacingLeft=3;spacingRight=3;rotatable=0;labelPosition=right;points=[];portConstraint=eastwest;" vertex="1"><mxGeometry as="geometry" height="8" width="225" y="26"/></mxCell><mxCell id="105" parent="103" style="text;html=1;strokeColor=none;fillColor=none;align=left;verticalAlign=middle;spacingLeft=4;spacingRight=4;overflow=hidden;rotatable=0;points=[[0,0.5],[1,0.5]];portConstraint=eastwest;" value="+ DiscenteDto(String, String, String)" vertex="1"><mxGeometry as="geometry" height="26" width="225" y="34"/></mxCell><mxCell id="106" parent="1" style="swimlane;fontStyle=0;align=center;verticalAlign=top;childLayout=stackLayout;horizontal=1;startSize=30;horizontalStack=0;resizeParent=1;resizeParentMax=0;resizeLast=0;collapsible=0;marginBottom=0;html=1;" value="PedidoEstagioDto" vertex="1"><mxGeometry as="geometry" height="502" width="225" x="391" y="3572"/></mxCell><mxCell id="107" parent="106" style="text;html=1;strokeColor=none;fillColor=none;align=left;verticalAlign=middle;spacingLeft=4;spacingRight=4;overflow=hidden;rotatable=0;points=[[0,0.5],[1,0.5]];portConstraint=eastwest;" value="- numeroPedidoEstagio : int" vertex="1"><mxGeometry as="geometry" height="26" width="225" y="26"/></mxCell><mxCell id="108" parent="106" style="text;html=1;strokeColor=none;fillColor=none;align=left;verticalAlign=middle;spacingLeft=4;spacingRight=4;overflow=hidden;rotatable=0;points=[[0,0.5],[1,0.5]];portConstraint=eastwest;" value="- discenteId : String" vertex="1"><mxGeometry as="geometry" height="26" width="225" y="52"/></mxCell><mxCell id="109" parent="106" style="text;html=1;strokeColor=none;fillColor=none;align=left;verticalAlign=middle;spacingLeft=4;spacingRight=4;overflow=hidden;rotatable=0;points=[[0,0.5],[1,0.5]];portConstraint=eastwest;" value="- nomeEmpresa : String" vertex="1"><mxGeometry as="geometry" height="26" width="225" y="78"/></mxCell><mxCell id="110" parent="106" style="text;html=1;strokeColor=none;fillColor=none;align=left;verticalAlign=middle;spacingLeft=4;spacingRight=4;overflow=hidden;rotatable=0;points=[[0,0.5],[1,0.5]];portConstraint=eastwest;" value="- cargaHorariaCumprida : int" vertex="1"><mxGeometry as="geometry" height="26" width="225" y="104"/></mxCell><mxCell id="111" parent="106" style="text;html=1;strokeColor=none;fillColor=none;align=left;verticalAlign=middle;spacingLeft=4;spacingRight=4;overflow=hidden;rotatable=0;points=[[0,0.5],[1,0.5]];portConstraint=eastwest;" value="- ira : double" vertex="1"><mxGeometry as="geometry" height="26" width="225" y="130"/></mxCell><mxCell id="112" parent="106" style="text;html=1;strokeColor=none;fillColor=none;align=left;verticalAlign=middle;spacingLeft=4;spacingRight=4;overflow=hidden;rotatable=0;points=[[0,0.5],[1,0.5]];portConstraint=eastwest;" value="- cargaHorariaSemanal : int" vertex="1"><mxGeometry as="geometry" height="26" width="225" y="156"/></mxCell><mxCell id="113" parent="106" style="text;html=1;strokeColor=none;fillColor=none;align=left;verticalAlign=middle;spacingLeft=4;spacingRight=4;overflow=hidden;rotatable=0;points=[[0,0.5],[1,0.5]];portConstraint=eastwest;" value="- primeiroEstagio : boolean" vertex="1"><mxGeometry as="geometry" height="26" width="225" y="182"/></mxCell><mxCell id="114" parent="106" style="text;html=1;strokeColor=none;fillColor=none;align=left;verticalAlign=middle;spacingLeft=4;spacingRight=4;overflow=hidden;rotatable=0;points=[[0,0.5],[1,0.5]];portConstraint=eastwest;" value="- supervisorId : String" vertex="1"><mxGeometry as="geometry" height="26" width="225" y="208"/></mxCell><mxCell id="115" parent="106" style="line;strokeWidth=1;fillColor=none;align=left;verticalAlign=middle;spacingTop=-1;spacingLeft=3;spacingRight=3;rotatable=0;labelPosition=right;points=[];portConstraint=eastwest;" vertex="1"><mxGeometry as="geometry" height="8" width="225" y="234"/></mxCell><mxCell id="116" parent="106" style="text;html=1;strokeColor=none;fillColor=none;align=left;verticalAlign=middle;spacingLeft=4;spacingRight=4;overflow=hidden;rotatable=0;points=[[0,0.5],[1,0.5]];portConstraint=eastwest;" value="+ PedidoEstagioDto(Integer, String, String, int, double, int, boolean)" vertex="1"><mxGeometry as="geometry" height="26" width="225" y="242"/></mxCell><mxCell id="117" parent="106" style="text;html=1;strokeColor=none;fillColor=none;align=left;verticalAlign=middle;spacingLeft=4;spacingRight=4;overflow=hidden;rotatable=0;points=[[0,0.5],[1,0.5]];portConstraint=eastwest;" value="+ setSupervisorId(String): void" vertex="1"><mxGeometry as="geometry" height="26" width="225" y="268"/></mxCell><mxCell id="118" parent="106" style="text;html=1;strokeColor=none;fillColor=none;align=left;verticalAlign=middle;spacingLeft=4;spacingRight=4;overflow=hidden;rotatable=0;points=[[0,0.5],[1,0.5]];portConstraint=eastwest;" value="+ getNumeroPedidoEstagio(): int" vertex="1"><mxGeometry as="geometry" height="26" width="225" y="294"/></mxCell><mxCell id="119" parent="106" style="text;html=1;strokeColor=none;fillColor=none;align=left;verticalAlign=middle;spacingLeft=4;spacingRight=4;overflow=hidden;rotatable=0;points=[[0,0.5],[1,0.5]];portConstraint=eastwest;" value="+ getDiscenteId(): String" vertex="1"><mxGeometry as="geometry" height="26" width="225" y="320"/></mxCell><mxCell id="120" parent="106" style="text;html=1;strokeColor=none;fillColor=none;align=left;verticalAlign=middle;spacingLeft=4;spacingRight=4;overflow=hidden;rotatable=0;points=[[0,0.5],[1,0.5]];portConstraint=eastwest;" value="+ getSupervisorId(): String" vertex="1"><mxGeometry as="geometry" height="26" width="225" y="346"/></mxCell><mxCell id="121" parent="106" style="text;html=1;strokeColor=none;fillColor=none;align=left;verticalAlign=middle;spacingLeft=4;spacingRight=4;overflow=hidden;rotatable=0;points=[[0,0.5],[1,0.5]];portConstraint=eastwest;" value="+ getNomeEmpresa(): String" vertex="1"><mxGeometry as="geometry" height="26" width="225" y="372"/></mxCell><mxCell id="122" parent="106" style="text;html=1;strokeColor=none;fillColor=none;align=left;verticalAlign=middle;spacingLeft=4;spacingRight=4;overflow=hidden;rotatable=0;points=[[0,0.5],[1,0.5]];portConstraint=eastwest;" value="+ getCargaHorariaCumprida(): int" vertex="1"><mxGeometry as="geometry" height="26" width="225" y="398"/></mxCell><mxCell id="123" parent="106" style="text;html=1;strokeColor=none;fillColor=none;align=left;verticalAlign=middle;spacingLeft=4;spacingRight=4;overflow=hidden;rotatable=0;points=[[0,0.5],[1,0.5]];portConstraint=eastwest;" value="+ getIra(): double" vertex="1"><mxGeometry as="geometry" height="26" width="225" y="424"/></mxCell><mxCell id="124" parent="106" style="text;html=1;strokeColor=none;fillColor=none;align=left;verticalAlign=middle;spacingLeft=4;spacingRight=4;overflow=hidden;rotatable=0;points=[[0,0.5],[1,0.5]];portConstraint=eastwest;" value="+ getCargaHorariaSemanal(): int" vertex="1"><mxGeometry as="geometry" height="26" width="225" y="450"/></mxCell><mxCell id="125" parent="106" style="text;html=1;strokeColor=none;fillColor=none;align=left;verticalAlign=middle;spacingLeft=4;spacingRight=4;overflow=hidden;rotatable=0;points=[[0,0.5],[1,0.5]];portConstraint=eastwest;" value="+ isPrimeiroEstagio(): boolean" vertex="1"><mxGeometry as="geometry" height="26" width="225" y="476"/></mxCell><mxCell id="126" parent="1" style="swimlane;fontStyle=0;align=center;verticalAlign=top;childLayout=stackLayout;horizontal=1;startSize=30;horizontalStack=0;resizeParent=1;resizeParentMax=0;resizeLast=0;collapsible=0;marginBottom=0;html=1;" value="SupervisorDto" vertex="1"><mxGeometry as="geometry" height="60" width="225" x="712" y="3572"/></mxCell><mxCell id="127" parent="126" style="line;strokeWidth=1;fillColor=none;align=left;verticalAlign=middle;spacingTop=-1;spacingLeft=3;spacingRight=3;rotatable=0;labelPosition=right;points=[];portConstraint=eastwest;" vertex="1"><mxGeometry as="geometry" height="8" width="225" y="26"/></mxCell><mxCell id="128" parent="126" style="text;html=1;strokeColor=none;fillColor=none;align=left;verticalAlign=middle;spacingLeft=4;spacingRight=4;overflow=hidden;rotatable=0;points=[[0,0.5],[1,0.5]];portConstraint=eastwest;" value="+ SupervisorDto(String, String, String)" vertex="1"><mxGeometry as="geometry" height="26" width="225" y="34"/></mxCell><mxCell id="129" parent="1" style="swimlane;fontStyle=0;align=center;verticalAlign=top;childLayout=stackLayout;horizontal=1;startSize=30;horizontalStack=0;resizeParent=1;resizeParentMax=0;resizeLast=0;collapsible=0;marginBottom=0;html=1;" value="UsuarioDto" vertex="1"><mxGeometry as="geometry" height="268" width="225" x="70" y="4154"/></mxCell><mxCell id="130" parent="129" style="text;html=1;strokeColor=none;fillColor=none;align=left;verticalAlign=middle;spacingLeft=4;spacingRight=4;overflow=hidden;rotatable=0;points=[[0,0.5],[1,0.5]];portConstraint=eastwest;" value="- id : String" vertex="1"><mxGeometry as="geometry" height="26" width="225" y="26"/></mxCell><mxCell id="131" parent="129" style="text;html=1;strokeColor=none;fillColor=none;align=left;verticalAlign=middle;spacingLeft=4;spacingRight=4;overflow=hidden;rotatable=0;points=[[0,0.5],[1,0.5]];portConstraint=eastwest;" value="- email : String" vertex="1"><mxGeometry as="geometry" height="26" width="225" y="52"/></mxCell><mxCell id="132" parent="129" style="text;html=1;strokeColor=none;fillColor=none;align=left;verticalAlign=middle;spacingLeft=4;spacingRight=4;overflow=hidden;rotatable=0;points=[[0,0.5],[1,0.5]];portConstraint=eastwest;" value="- nome : String" vertex="1"><mxGeometry as="geometry" height="26" width="225" y="78"/></mxCell><mxCell id="133" parent="129" style="text;html=1;strokeColor=none;fillColor=none;align=left;verticalAlign=middle;spacingLeft=4;spacingRight=4;overflow=hidden;rotatable=0;points=[[0,0.5],[1,0.5]];portConstraint=eastwest;" value="- senha : String" vertex="1"><mxGeometry as="geometry" height="26" width="225" y="104"/></mxCell><mxCell id="134" parent="129" style="line;strokeWidth=1;fillColor=none;align=left;verticalAlign=middle;spacingTop=-1;spacingLeft=3;spacingRight=3;rotatable=0;labelPosition=right;points=[];portConstraint=eastwest;" vertex="1"><mxGeometry as="geometry" height="8" width="225" y="130"/></mxCell><mxCell id="135" parent="129" style="text;html=1;strokeColor=none;fillColor=none;align=left;verticalAlign=middle;spacingLeft=4;spacingRight=4;overflow=hidden;rotatable=0;points=[[0,0.5],[1,0.5]];portConstraint=eastwest;" value="+ UsuarioDto(String, String, String)" vertex="1"><mxGeometry as="geometry" height="26" width="225" y="138"/></mxCell><mxCell id="136" parent="129" style="text;html=1;strokeColor=none;fillColor=none;align=left;verticalAlign=middle;spacingLeft=4;spacingRight=4;overflow=hidden;rotatable=0;points=[[0,0.5],[1,0.5]];portConstraint=eastwest;" value="+ getId(): String" vertex="1"><mxGeometry as="geometry" height="26" width="225" y="164"/></mxCell><mxCell id="137" parent="129" style="text;html=1;strokeColor=none;fillColor=none;align=left;verticalAlign=middle;spacingLeft=4;spacingRight=4;overflow=hidden;rotatable=0;points=[[0,0.5],[1,0.5]];portConstraint=eastwest;" value="+ getEmail(): String" vertex="1"><mxGeometry as="geometry" height="26" width="225" y="190"/></mxCell><mxCell id="138" parent="129" style="text;html=1;strokeColor=none;fillColor=none;align=left;verticalAlign=middle;spacingLeft=4;spacingRight=4;overflow=hidden;rotatable=0;points=[[0,0.5],[1,0.5]];portConstraint=eastwest;" value="+ getNome(): String" vertex="1"><mxGeometry as="geometry" height="26" width="225" y="216"/></mxCell><mxCell id="139" parent="129" style="text;html=1;strokeColor=none;fillColor=none;align=left;verticalAlign=middle;spacingLeft=4;spacingRight=4;overflow=hidden;rotatable=0;points=[[0,0.5],[1,0.5]];portConstraint=eastwest;" value="+ getSenha(): String" vertex="1"><mxGeometry as="geometry" height="26" width="225" y="242"/></mxCell><mxCell edge="1" id="140" parent="1" source="2" style="endArrow=block;endSize=16;endFill=0;html=1" target="21" value="Extends"><mxGeometry as="geometry" relative="1" width="160"/></mxCell><mxCell edge="1" id="141" parent="1" source="5" style="endArrow=block;endSize=16;endFill=0;html=1" target="21" value="Extends"><mxGeometry as="geometry" relative="1" width="160"/></mxCell><mxCell edge="1" id="142" parent="1" source="8" style="endArrow=block;endSize=16;endFill=0;html=1" target="21" value="Extends"><mxGeometry as="geometry" relative="1" width="160"/></mxCell><mxCell edge="1" id="143" parent="1" source="12" style="endArrow=block;endSize=16;endFill=0;html=1" target="21" value="Extends"><mxGeometry as="geometry" relative="1" width="160"/></mxCell><mxCell edge="1" id="144" parent="1" source="15" style="endArrow=block;endSize=16;endFill=0;html=1" target="5" value="Extends"><mxGeometry as="geometry" relative="1" width="160"/></mxCell><mxCell edge="1" id="145" parent="1" source="18" style="endArrow=block;endSize=16;endFill=0;html=1" target="21" value="Extends"><mxGeometry as="geometry" relative="1" width="160"/></mxCell><mxCell edge="1" id="146" parent="1" source="103" style="endArrow=block;endSize=16;endFill=0;html=1" target="129" value="Extends"><mxGeometry as="geometry" relative="1" width="160"/></mxCell><mxCell edge="1" id="147" parent="1" source="126" style="endArrow=block;endSize=16;endFill=0;html=1" target="129" value="Extends"><mxGeometry as="geometry" relative="1" width="160"/></mxCell></root></mxGraphModel></diagram>